<?xml version="1.0" encoding="UTF-8" standalone="no"?>
<svg
   xmlns:dc="http://purl.org/dc/elements/1.1/"
   xmlns:cc="http://creativecommons.org/ns#"
   xmlns:rdf="http://www.w3.org/1999/02/22-rdf-syntax-ns#"
   xmlns:svg="http://www.w3.org/2000/svg"
   xmlns="http://www.w3.org/2000/svg"
   xmlns:sodipodi="http://sodipodi.sourceforge.net/DTD/sodipodi-0.dtd"
   xmlns:inkscape="http://www.inkscape.org/namespaces/inkscape"
   width="210mm"
   height="297mm"
   viewBox="0 0 210 297"
   version="1.1"
   id="svg8"
   inkscape:version="1.0.2 (e86c870879, 2021-01-15, custom)"
   sodipodi:docname="sommerpro.svg">
  <defs
     id="defs2" />
  <sodipodi:namedview
     id="base"
     pagecolor="#ffffff"
     bordercolor="#666666"
     borderopacity="1.0"
     inkscape:pageopacity="0.0"
     inkscape:pageshadow="2"
     inkscape:zoom="0.98994949"
     inkscape:cx="261.81066"
     inkscape:cy="495.05748"
     inkscape:document-units="mm"
     inkscape:current-layer="layer1"
     inkscape:document-rotation="0"
     showgrid="false"
     inkscape:window-width="2560"
     inkscape:window-height="1377"
     inkscape:window-x="-8"
     inkscape:window-y="-8"
     inkscape:window-maximized="1" />
  <metadata
     id="metadata5">
    <rdf:RDF>
      <cc:Work
         rdf:about="">
        <dc:format>image/svg+xml</dc:format>
        <dc:type
           rdf:resource="http://purl.org/dc/dcmitype/StillImage" />
        <dc:title></dc:title>
      </cc:Work>
    </rdf:RDF>
  </metadata>
  <g
     inkscape:groupmode="layer"
     id="layer2"
     inkscape:label="Ebene 2"
     sodipodi:insensitive="true"
     style="display:inline">
    <path
       id="path358"
       style="opacity:1;fill:#e6e6e6;stroke-width:1.22835"
       transform="scale(0.26458333)"
       d="M 388.36328,47.476562 A 350.01784,350.01784 0 0 0 38.345703,397.49414 350.01784,350.01784 0 0 0 388.36328,747.51367 350.01784,350.01784 0 0 0 738.38086,397.49414 350.01784,350.01784 0 0 0 388.36328,47.476562 Z" />
    <path
       id="circle360"
       style="opacity:1;fill:#333333;stroke-width:1.22835"
       d="M 38.390625,403.05078 A 350.01784,350.01784 0 0 0 388.36328,747.51367 350.01784,350.01784 0 0 0 738.33594,403.05078 Z"
       transform="scale(0.26458333)" />
  </g>
  <g
     inkscape:label="Ebene 1"
     inkscape:groupmode="layer"
     id="layer1">
    <path
       id="path14"
       style="fill:#333333;stroke-width:1.22835"
       d="M 388.82617 155.69141 A 241.55614 253.92063 0 0 0 147.49609 400.9043 L 147.44531 400.9043 L 147.44531 402.61719 A 241.55614 253.92063 0 0 0 147.35352 409.61133 A 241.55614 253.92063 0 0 0 147.44531 416.61523 L 147.44531 935.04492 A 482.34782 551.54326 0 0 0 334.64648 1008.0586 A 595.48494 431.84016 0 0 0 391.39648 1010.0254 A 595.48494 431.84016 0 0 0 456.55078 1007.4316 A 482.34782 551.54326 0 0 0 630.29883 941.10352 L 630.29883 419.04688 A 241.55614 253.92063 0 0 0 630.46484 409.61133 A 241.55614 253.92063 0 0 0 388.9082 155.69141 A 241.55614 253.92063 0 0 0 388.82617 155.69141 z "
       transform="scale(0.26458333)" />
    <ellipse
       style="fill:#999999;stroke-width:0.325002"
       id="path14-0"
       cx="103.434"
       cy="109.54694"
       rx="42.006279"
       ry="42.861645" />
    <path
       style="fill:#cccccc;stroke-width:0.325001"
       d="M 135.11412,92.117277 88.55934,142.49405 a 35.77345,36.501895 0 0 0 15.02957,3.37809 35.77345,36.501895 0 0 0 35.77353,-36.50217 35.77345,36.501895 0 0 0 -4.24832,-17.252693 z"
       id="path313" />
    <path
       style="fill:#000000;stroke-width:0.325001"
       d="M 103.50726,72.868324 A 35.77345,36.501895 0 0 0 67.815385,109.36997 35.77345,36.501895 0 0 0 80.737079,137.45404 L 129.72375,84.445395 a 35.77345,36.501895 0 0 0 -26.13484,-11.577071 35.77345,36.501895 0 0 0 -0.0816,0 z"
       id="path14-0-4" />
    <g
       style="fill:#00979c;stroke-width:0.136513"
       id="g410"
       transform="matrix(3.876296,0,0,3.876296,63.091669,155.31874)">
      <path
         d="m 23.783,23.55 c -2.044,0 -3.8,-0.7 -5.33,-2.1 -0.95,-0.87 -1.733,-1.937 -2.454,-3.046 -0.72,1.1 -1.504,2.175 -2.454,3.046 -1.653,1.515 -3.547,2.197 -5.8,2.087 C 3.476,23.52 0,20.143 0,15.994 0,11.834 3.495,8.45 7.8,8.45 a 8.51,8.51 0 0 1 6.05,2.378 c 0.826,0.77 1.524,1.66 2.16,2.593 0.636,-0.933 1.334,-1.824 2.16,-2.593 A 8.51,8.51 0 0 1 24.22,8.45 c 4.296,0 7.8,3.384 7.8,7.544 0,4.148 -3.476,7.526 -7.755,7.544 a 9.39,9.39 0 0 1 -0.462,0.011 z m -6.22,-7.656 c 0.853,1.383 1.68,2.67 2.688,3.594 1.138,1.043 2.337,1.472 3.887,1.4 l 0.07,-0.002 c 2.827,0 5.128,-2.2 5.128,-4.88 0,-2.68 -2.3,-4.88 -5.128,-4.88 a 5.88,5.88 0 0 0 -4.236,1.665 c -0.912,0.848 -1.665,1.935 -2.408,3.116 z M 7.8,11.113 c -2.827,0 -5.128,2.2 -5.128,4.88 0,2.68 2.3,4.88 5.128,4.88 l 0.07,0.002 c 1.55,0.082 2.75,-0.347 3.887,-1.4 1.008,-0.924 1.836,-2.2 2.688,-3.594 -0.744,-1.18 -1.497,-2.268 -2.408,-3.116 C 10.817,11.63 9.47,11.1 7.8,11.1 Z m 16.762,3.914 V 13.583 H 23.06 v 1.444 h -1.444 v 1.496 h 1.444 v 1.455 h 1.503 v -1.455 h 1.444 V 15.027 H 24.563 M 5.628,15 h 4.746 v 1.542 H 5.628 Z"
         id="path399"
         style="stroke-width:0.136513" />
    </g>
  </g>
</svg>
