<svg xmlns="http://www.w3.org/2000/svg" xmlns:xlink="http://www.w3.org/1999/xlink" width="62.23mm" height="64.922mm" viewBox="4035.5 3034 245 255.6"><title></title><style type="text/css">
*[layerid="1"] {stroke:#000000;fill:#000000;}
*[layerid="2"] {stroke:#000000;fill:#000000;}
*[layerid="3"] {stroke:#000000;fill:#000000;}
*[layerid="4"] {stroke:#000000;fill:#000000;}
*[layerid="5"] {stroke:#000000;fill:#000000;}
*[layerid="6"] {stroke:#000000;fill:#000000;}
*[layerid="7"] {stroke:#000000;fill:#000000;}
*[layerid="8"] {stroke:#000000;fill:#000000;}
*[layerid="9"] {stroke:#000000;fill:#000000;}
*[layerid="10"] {stroke:#000000;fill:#000000;}
*[layerid="11"] {stroke:#000000;fill:#000000;}
*[layerid="12"] {stroke:#000000;fill:#000000;}
*[layerid="13"] {stroke:#000000;fill:#000000;}
*[layerid="14"] {stroke:#000000;fill:#000000;}
*[layerid="15"] {stroke:#000000;fill:#000000;}
*[layerid="19"] {stroke:#000000;fill:#000000;}
*[layerid="21"] {stroke:#000000;fill:#000000;}
*[layerid="22"] {stroke:#000000;fill:#000000;}
*[layerid="23"] {stroke:#000000;fill:#000000;}
*[layerid="24"] {stroke:#000000;fill:#000000;}
*[layerid="25"] {stroke:#000000;fill:#000000;}
*[layerid="26"] {stroke:#000000;fill:#000000;}
*[layerid="27"] {stroke:#000000;fill:#000000;}
*[layerid="28"] {stroke:#000000;fill:#000000;}
*[layerid="29"] {stroke:#000000;fill:#000000;}
*[layerid="30"] {stroke:#000000;fill:#000000;}
*[layerid="31"] {stroke:#000000;fill:#000000;}
*[layerid="32"] {stroke:#000000;fill:#000000;}
*[layerid="33"] {stroke:#000000;fill:#000000;}
*[layerid="34"] {stroke:#000000;fill:#000000;}
*[layerid="35"] {stroke:#000000;fill:#000000;}
*[layerid="36"] {stroke:#000000;fill:#000000;}
*[layerid="37"] {stroke:#000000;fill:#000000;}
*[layerid="38"] {stroke:#000000;fill:#000000;}
*[layerid="39"] {stroke:#000000;fill:#000000;}
*[layerid="40"] {stroke:#000000;fill:#000000;}
*[layerid="41"] {stroke:#000000;fill:#000000;}
*[layerid="42"] {stroke:#000000;fill:#000000;}
*[layerid="43"] {stroke:#000000;fill:#000000;}
*[layerid="44"] {stroke:#000000;fill:#000000;}
*[layerid="45"] {stroke:#000000;fill:#000000;}
*[layerid="46"] {stroke:#000000;fill:#000000;}
*[layerid="47"] {stroke:#000000;fill:#000000;}
*[layerid="48"] {stroke:#000000;fill:#000000;}
*[layerid="49"] {stroke:#000000;fill:#000000;}
*[layerid="50"] {stroke:#000000;fill:#000000;}
*[layerid="51"] {stroke:#000000;fill:#000000;}
*[layerid="52"] {stroke:#000000;fill:#000000;}
*[layerid="99"] {stroke:#000000;fill:#000000;}
*[layerid="100"] {stroke:#000000;fill:#000000;}
*[layerid="101"] {stroke:#000000;fill:#000000;}
*[layerid="Hole"] {stroke:#000000;fill:#000000;}
*[layerid="DRCError"] {stroke:#000000;fill:#000000;}
*[fill="none"] {fill: none;}
*[stroke="none"] {stroke: none;}
path, polyline, polygon, line {stroke-linecap:round;}
g[c_partid="part_pad"][layerid="1"] ellipse:not([c_etype="pad_outer"]) {fill:#000000;}
g[c_partid="part_pad"][layerid="1"] polygon:not([c_etype="pad_outer"]) {fill:#000000;}
g[c_partid="part_pad"][layerid="1"] polyline:not([c_etype="pad_outer"]) {stroke:#000000;}
g[c_partid="part_pad"][layerid="2"] ellipse:not([c_etype="pad_outer"]) {fill:#000000;}
g[c_partid="part_pad"][layerid="2"] polygon:not([c_etype="pad_outer"]) {fill:#000000;}
g[c_partid="part_pad"][layerid="2"] polyline:not([c_etype="pad_outer"]) {stroke:#000000;}
g[c_partid="part_pad"][layerid="11"] ellipse:not([c_etype="pad_outer"]) {fill:#000000;}
g[c_partid="part_pad"][layerid="11"] polygon:not([c_etype="pad_outer"]) {fill:#000000;}
g[c_partid="part_pad"][layerid="11"] polyline:not([c_etype="pad_outer"]) {stroke:#000000;}
g[c_partid="part_pad"][layerid="11"] circle {fill:#FFFFFF;}
g[c_partid="part_pad"][layerid="11"] > polyline:nth-of-type(2) {stroke:#FFFFFF;}
g[c_partid="part_pad"][layerid="11"][c_shape="ELLIPSE"]  polyline:nth-last-of-type(1) {stroke:#FFFFFF;}
g[c_partid="part_pad"][layerid="11"][c_shape="RECT"]  polyline:nth-last-of-type(1) {stroke:#FFFFFF;}
g[c_partid="part_pad"][layerid="11"][c_shape="POLYGON"]  polyline:nth-last-of-type(1) {stroke:#FFFFFF;}
g[c_partid="part_via"] > * + circle, #gCurParts g[c_partid="part_via"] > * + circle {fill:#FFFFFF;}
g[c_partid="part_pad"] > polygon[c_etype="pad_outer"], #gCurParts g[c_partid="part_pad"] > polygon[c_etype="pad_outer"] {stroke-linejoin: round;stroke-miterlimit: 100;}
g[c_partid="part_hole"] > circle {fill: #FFFFFF;}path, polyline, polygon {stroke-linejoin:round;}
rect, circle, ellipse, polyline, line, polygon, path {shape-rendering:crispEdges;}
</style>
<rect x="4035.5" y="3034" width="245" height="255.6" fill="#FFFFFF" stroke="none"/><g transform="matrix(-1, 0, 0, 1, 8316, 0)"><polyline points="4154.5 3165 4166 3165 4168.5 3162" stroke-width="1.1811"  stroke-linecap="round" fill="none" layerid="2" net="GND" id="gge8739" locked="0" /><polyline points="4168.5 3165 4168.5 3222.5 4175.1001 3229.1001 4244.5 3229.1001" stroke-width="1.1811"  stroke-linecap="round" fill="none" layerid="2" net="GND" id="gge8718" locked="0" /><polyline points="4064.5 3125 4112 3171 4112 3212.5" stroke-width="1.1811"  stroke-linecap="round" fill="none" layerid="2" net="CS" id="gge10564" locked="0" /><polyline points="4064.5 3135 4099 3169.5 4099 3212.5" stroke-width="1.1811"  stroke-linecap="round" fill="none" layerid="2" net="SCK" id="gge10561" locked="0" /><polyline points="4064.5 3145 4090.5 3171 4090.5 3212" stroke-width="1.1811"  stroke-linecap="round" fill="none" layerid="2" net="MISO" id="gge10558" locked="0" /><polyline points="4215.5 3183 4224.89 3192.39 4244 3192.39" stroke-width="1.1811"  stroke-linecap="round" fill="none" layerid="2" net="SW2_4" id="gge8745" locked="0" /><polyline points="4215.5 3134 4227.39 3145.89 4243.5 3145.89" stroke-width="1.1811"  stroke-linecap="round" fill="none" layerid="2" net="SW1_4" id="gge8742" locked="0" /><polyline points="4243.5 3090.89 4229.61 3077 4195 3077 4186.5 3088" stroke-width="1.1811"  stroke-linecap="round" fill="none" layerid="2" net="PWR_1" id="gge8561" locked="0" /><polyline points="4168.5 3125.67 4196.5 3095.5 4196.5 3088" stroke-width="1.1811"  stroke-linecap="round" fill="none" layerid="2" net="GND" id="gge8633" locked="0" /><polyline points="4064.5 3155 4084.5 3175" stroke-width="1.1811"  stroke-linecap="round" fill="none" layerid="2" net="MOSI" id="gge11393" locked="0" /><polyline points="4070 3196 4102 3228 4103.5 3228" stroke-width="1.1811"  stroke-linecap="round" fill="none" layerid="2" net="3V3" id="gge12342" locked="0" /><polyline points="4108 3175 4108 3212.5" stroke-width="1.1811"  stroke-linecap="round" fill="none" layerid="2" net="MOSI" id="gge11471" locked="0" /><polyline points="4168.5 3125.67 4168.5 3164.5 4168.5 3165" stroke-width="1.1811"  stroke-linecap="round" fill="none" layerid="2" net="GND" id="gge1677" locked="0" /><polyline points="4168.5 3186 4175.115 3193 4185.5 3193" stroke-width="1.1811"  stroke-linecap="round" fill="none" layerid="2" net="GND" id="gge8724" locked="0" /><polyline points="4168.5 3136.5 4175.9228 3144 4185.5 3144" stroke-width="1.1811"  stroke-linecap="round" fill="none" layerid="2" net="GND" id="gge8736" locked="0" /></g><g transform="matrix(-1, 0, 0, 1, 8316, 0)"><g c_partid="part_pcbtext" c_etype="pinpart" c_origin="4170.5,3067.5" c_rotation="0" c_mirror="1" id="gge1866" locked="0" layerid="4" c_shapetype="group" ><path c_fontsize="3.937" c_fontfamily="" c_text="Sommer Pro+ Garagentorsteuerung" d="M 4167.9946 3064.0641 L 4168.3525 3063.7062 L 4168.8894 3063.5272 L 4169.6052 3063.5272 L 4170.1421 3063.7062 L 4170.5 3064.0641 L 4170.5 3064.422 L 4170.321 3064.7799 L 4170.1421 3064.9588 L 4169.7842 3065.1378 L 4168.7105 3065.4957 L 4168.3525 3065.6747 L 4168.1736 3065.8536 L 4167.9946 3066.2115 L 4167.9946 3066.7484 L 4168.3525 3067.1063 L 4168.8894 3067.2853 L 4169.6052 3067.2853 L 4170.1421 3067.1063 L 4170.5 3066.7484 M 4165.9188 3064.7799 L 4166.2767 3064.9588 L 4166.6346 3065.3168 L 4166.8135 3065.8536 L 4166.8135 3066.2115 L 4166.6346 3066.7484 L 4166.2767 3067.1063 L 4165.9188 3067.2853 L 4165.3819 3067.2853 L 4165.024 3067.1063 L 4164.6661 3066.7484 L 4164.4871 3066.2115 L 4164.4871 3065.8536 L 4164.6661 3065.3168 L 4165.024 3064.9588 L 4165.3819 3064.7799 L 4165.9188 3064.7799 M 4163.306 3064.7799 L 4163.306 3067.2853 M 4163.306 3065.4957 L 4162.7692 3064.9588 L 4162.4113 3064.7799 L 4161.8744 3064.7799 L 4161.5165 3064.9588 L 4161.3375 3065.4957 L 4161.3375 3067.2853 M 4161.3375 3065.4957 L 4160.8007 3064.9588 L 4160.4428 3064.7799 L 4159.9059 3064.7799 L 4159.548 3064.9588 L 4159.369 3065.4957 L 4159.369 3067.2853 M 4158.1879 3064.7799 L 4158.1879 3067.2853 M 4158.1879 3065.4957 L 4157.6511 3064.9588 L 4157.2932 3064.7799 L 4156.7563 3064.7799 L 4156.3984 3064.9588 L 4156.2194 3065.4957 L 4156.2194 3067.2853 M 4156.2194 3065.4957 L 4155.6826 3064.9588 L 4155.3247 3064.7799 L 4154.7878 3064.7799 L 4154.4299 3064.9588 L 4154.2509 3065.4957 L 4154.2509 3067.2853 M 4153.0698 3065.8536 L 4150.9224 3065.8536 L 4150.9224 3065.4957 L 4151.1013 3065.1378 L 4151.2803 3064.9588 L 4151.6382 3064.7799 L 4152.1751 3064.7799 L 4152.533 3064.9588 L 4152.8909 3065.3168 L 4153.0698 3065.8536 L 4153.0698 3066.2115 L 4152.8909 3066.7484 L 4152.533 3067.1063 L 4152.1751 3067.2853 L 4151.6382 3067.2853 L 4151.2803 3067.1063 L 4150.9224 3066.7484 M 4149.7413 3064.7799 L 4149.7413 3067.2853 M 4149.7413 3065.8536 L 4149.5623 3065.3168 L 4149.2044 3064.9588 L 4148.8465 3064.7799 L 4148.3096 3064.7799 M 4144.3726 3063.5272 L 4144.3726 3067.2853 M 4144.3726 3063.5272 L 4142.762 3063.5272 L 4142.2252 3063.7062 L 4142.0462 3063.8851 L 4141.8673 3064.243 L 4141.8673 3064.7799 L 4142.0462 3065.1378 L 4142.2252 3065.3168 L 4142.762 3065.4957 L 4144.3726 3065.4957 M 4140.6862 3064.7799 L 4140.6862 3067.2853 M 4140.6862 3065.8536 L 4140.5072 3065.3168 L 4140.1493 3064.9588 L 4139.7914 3064.7799 L 4139.2545 3064.7799 M 4137.1787 3064.7799 L 4137.5366 3064.9588 L 4137.8945 3065.3168 L 4138.0734 3065.8536 L 4138.0734 3066.2115 L 4137.8945 3066.7484 L 4137.5366 3067.1063 L 4137.1787 3067.2853 L 4136.6418 3067.2853 L 4136.2839 3067.1063 L 4135.926 3066.7484 L 4135.747 3066.2115 L 4135.747 3065.8536 L 4135.926 3065.3168 L 4136.2839 3064.9588 L 4136.6418 3064.7799 L 4137.1787 3064.7799 M 4132.9553 3064.0641 L 4132.9553 3067.2853 M 4134.5659 3065.6747 L 4131.3447 3065.6747 M 4124.7234 3064.422 L 4124.9024 3064.0641 L 4125.2603 3063.7062 L 4125.6182 3063.5272 L 4126.334 3063.5272 L 4126.6919 3063.7062 L 4127.0498 3064.0641 L 4127.2288 3064.422 L 4127.4077 3064.9588 L 4127.4077 3065.8536 L 4127.2288 3066.3905 L 4127.0498 3066.7484 L 4126.6919 3067.1063 L 4126.334 3067.2853 L 4125.6182 3067.2853 L 4125.2603 3067.1063 L 4124.9024 3066.7484 L 4124.7234 3066.3905 L 4124.7234 3065.8536 M 4125.6182 3065.8536 L 4124.7234 3065.8536 M 4121.3949 3064.7799 L 4121.3949 3067.2853 M 4121.3949 3065.3168 L 4121.7528 3064.9588 L 4122.1107 3064.7799 L 4122.6476 3064.7799 L 4123.0055 3064.9588 L 4123.3634 3065.3168 L 4123.5423 3065.8536 L 4123.5423 3066.2115 L 4123.3634 3066.7484 L 4123.0055 3067.1063 L 4122.6476 3067.2853 L 4122.1107 3067.2853 L 4121.7528 3067.1063 L 4121.3949 3066.7484 M 4120.2138 3064.7799 L 4120.2138 3067.2853 M 4120.2138 3065.8536 L 4120.0348 3065.3168 L 4119.6769 3064.9588 L 4119.319 3064.7799 L 4118.7821 3064.7799 M 4115.4536 3064.7799 L 4115.4536 3067.2853 M 4115.4536 3065.3168 L 4115.8115 3064.9588 L 4116.1694 3064.7799 L 4116.7063 3064.7799 L 4117.0642 3064.9588 L 4117.4221 3065.3168 L 4117.601 3065.8536 L 4117.601 3066.2115 L 4117.4221 3066.7484 L 4117.0642 3067.1063 L 4116.7063 3067.2853 L 4116.1694 3067.2853 L 4115.8115 3067.1063 L 4115.4536 3066.7484 M 4112.125 3064.7799 L 4112.125 3067.6432 L 4112.304 3068.18 L 4112.4829 3068.359 L 4112.8408 3068.5379 L 4113.3777 3068.5379 L 4113.7356 3068.359 M 4112.125 3065.3168 L 4112.4829 3064.9588 L 4112.8408 3064.7799 L 4113.3777 3064.7799 L 4113.7356 3064.9588 L 4114.0935 3065.3168 L 4114.2725 3065.8536 L 4114.2725 3066.2115 L 4114.0935 3066.7484 L 4113.7356 3067.1063 L 4113.3777 3067.2853 L 4112.8408 3067.2853 L 4112.4829 3067.1063 L 4112.125 3066.7484 M 4110.9439 3065.8536 L 4108.7965 3065.8536 L 4108.7965 3065.4957 L 4108.9754 3065.1378 L 4109.1544 3064.9588 L 4109.5123 3064.7799 L 4110.0492 3064.7799 L 4110.4071 3064.9588 L 4110.765 3065.3168 L 4110.9439 3065.8536 L 4110.9439 3066.2115 L 4110.765 3066.7484 L 4110.4071 3067.1063 L 4110.0492 3067.2853 L 4109.5123 3067.2853 L 4109.1544 3067.1063 L 4108.7965 3066.7484 M 4107.6154 3064.7799 L 4107.6154 3067.2853 M 4107.6154 3065.4957 L 4107.0785 3064.9588 L 4106.7206 3064.7799 L 4106.1837 3064.7799 L 4105.8258 3064.9588 L 4105.6469 3065.4957 L 4105.6469 3067.2853 M 4103.9289 3063.5272 L 4103.9289 3066.5694 L 4103.75 3067.1063 L 4103.392 3067.2853 L 4103.0341 3067.2853 M 4104.4658 3064.7799 L 4103.2131 3064.7799 M 4100.9583 3064.7799 L 4101.3162 3064.9588 L 4101.6741 3065.3168 L 4101.853 3065.8536 L 4101.853 3066.2115 L 4101.6741 3066.7484 L 4101.3162 3067.1063 L 4100.9583 3067.2853 L 4100.4214 3067.2853 L 4100.0635 3067.1063 L 4099.7056 3066.7484 L 4099.5266 3066.2115 L 4099.5266 3065.8536 L 4099.7056 3065.3168 L 4100.0635 3064.9588 L 4100.4214 3064.7799 L 4100.9583 3064.7799 M 4098.3455 3064.7799 L 4098.3455 3067.2853 M 4098.3455 3065.8536 L 4098.1666 3065.3168 L 4097.8087 3064.9588 L 4097.4508 3064.7799 L 4096.9139 3064.7799 M 4093.7643 3065.3168 L 4093.9432 3064.9588 L 4094.4801 3064.7799 L 4095.017 3064.7799 L 4095.5538 3064.9588 L 4095.7328 3065.3168 L 4095.5538 3065.6747 L 4095.1959 3065.8536 L 4094.3012 3066.0326 L 4093.9432 3066.2115 L 4093.7643 3066.5694 L 4093.7643 3066.7484 L 4093.9432 3067.1063 L 4094.4801 3067.2853 L 4095.017 3067.2853 L 4095.5538 3067.1063 L 4095.7328 3066.7484 M 4092.0463 3063.5272 L 4092.0463 3066.5694 L 4091.8674 3067.1063 L 4091.5095 3067.2853 L 4091.1516 3067.2853 M 4092.5832 3064.7799 L 4091.3305 3064.7799 M 4089.9705 3065.8536 L 4087.823 3065.8536 L 4087.823 3065.4957 L 4088.002 3065.1378 L 4088.1809 3064.9588 L 4088.5388 3064.7799 L 4089.0757 3064.7799 L 4089.4336 3064.9588 L 4089.7915 3065.3168 L 4089.9705 3065.8536 L 4089.9705 3066.2115 L 4089.7915 3066.7484 L 4089.4336 3067.1063 L 4089.0757 3067.2853 L 4088.5388 3067.2853 L 4088.1809 3067.1063 L 4087.823 3066.7484 M 4086.6419 3064.7799 L 4086.6419 3066.5694 L 4086.4629 3067.1063 L 4086.105 3067.2853 L 4085.5682 3067.2853 L 4085.2103 3067.1063 L 4084.6734 3066.5694 M 4084.6734 3064.7799 L 4084.6734 3067.2853 M 4083.4923 3065.8536 L 4081.3448 3065.8536 L 4081.3448 3065.4957 L 4081.5238 3065.1378 L 4081.7028 3064.9588 L 4082.0607 3064.7799 L 4082.5975 3064.7799 L 4082.9554 3064.9588 L 4083.3133 3065.3168 L 4083.4923 3065.8536 L 4083.4923 3066.2115 L 4083.3133 3066.7484 L 4082.9554 3067.1063 L 4082.5975 3067.2853 L 4082.0607 3067.2853 L 4081.7028 3067.1063 L 4081.3448 3066.7484 M 4080.1637 3064.7799 L 4080.1637 3067.2853 M 4080.1637 3065.8536 L 4079.9848 3065.3168 L 4079.6269 3064.9588 L 4079.269 3064.7799 L 4078.7321 3064.7799 M 4077.551 3064.7799 L 4077.551 3066.5694 L 4077.3721 3067.1063 L 4077.0141 3067.2853 L 4076.4773 3067.2853 L 4076.1194 3067.1063 L 4075.5825 3066.5694 M 4075.5825 3064.7799 L 4075.5825 3067.2853 M 4074.4014 3064.7799 L 4074.4014 3067.2853 M 4074.4014 3065.4957 L 4073.8645 3064.9588 L 4073.5066 3064.7799 L 4072.9698 3064.7799 L 4072.6119 3064.9588 L 4072.4329 3065.4957 L 4072.4329 3067.2853 M 4069.1044 3064.7799 L 4069.1044 3067.6432 L 4069.2833 3068.18 L 4069.4623 3068.359 L 4069.8202 3068.5379 L 4070.357 3068.5379 L 4070.7149 3068.359 M 4069.1044 3065.3168 L 4069.4623 3064.9588 L 4069.8202 3064.7799 L 4070.357 3064.7799 L 4070.7149 3064.9588 L 4071.0729 3065.3168 L 4071.2518 3065.8536 L 4071.2518 3066.2115 L 4071.0729 3066.7484 L 4070.7149 3067.1063 L 4070.357 3067.2853 L 4069.8202 3067.2853 L 4069.4623 3067.1063 L 4069.1044 3066.7484" fill="none"  stroke-width="0.8"  /></g><g c_partid="part_pcbtext" c_etype="pinpart" c_origin="4170.5,3074" c_rotation="0" c_mirror="1" id="gge1890" locked="0" layerid="4" c_shapetype="group" ><path c_fontsize="3.937" c_fontfamily="" c_text="v1.2.0 - Excodibur" d="M4170.5 3071.2799L4169.4263 3073.7853M4168.3525 3071.2799L4169.4263 3073.7853M4167.1714 3070.743L4166.8135 3070.5641 4166.2767 3070.0272 4166.2767 3073.7853M4164.9166 3072.8905L4165.0956 3073.0694 4164.9166 3073.2484 4164.7377 3073.0694 4164.9166 3072.8905M4163.3776 3070.922L4163.3776 3070.743 4163.1987 3070.3851 4163.0197 3070.2062 4162.6618 3070.0272 4161.946 3070.0272 4161.5881 3070.2062 4161.4091 3070.3851 4161.2302 3070.743 4161.2302 3071.1009 4161.4091 3071.4588 4161.767 3071.9957 4163.5566 3073.7853 4161.0512 3073.7853M4159.6911 3072.8905L4159.8701 3073.0694 4159.6911 3073.2484 4159.5122 3073.0694 4159.6911 3072.8905M4157.2574 3070.0272L4157.7942 3070.2062 4158.1521 3070.743 4158.3311 3071.6378 4158.3311 3072.1747 4158.1521 3073.0694 4157.7942 3073.6063 4157.2574 3073.7853 4156.8995 3073.7853 4156.3626 3073.6063 4156.0047 3073.0694 4155.8257 3072.1747 4155.8257 3071.6378 4156.0047 3070.743 4156.3626 3070.2062 4156.8995 3070.0272 4157.2574 3070.0272M4151.8887 3072.1747L4148.6675 3072.1747M4144.7305 3070.0272L4144.7305 3073.7853M4144.7305 3070.0272L4142.4041 3070.0272M4144.7305 3071.8168L4143.2989 3071.8168M4144.7305 3073.7853L4142.4041 3073.7853M4141.223 3071.2799L4139.2545 3073.7853M4139.2545 3071.2799L4141.223 3073.7853M4135.926 3071.8168L4136.2839 3071.4588 4136.6418 3071.2799 4137.1787 3071.2799 4137.5366 3071.4588 4137.8945 3071.8168 4138.0734 3072.3536 4138.0734 3072.7115 4137.8945 3073.2484 4137.5366 3073.6063 4137.1787 3073.7853 4136.6418 3073.7853 4136.2839 3073.6063 4135.926 3073.2484M4133.8501 3071.2799L4134.208 3071.4588 4134.5659 3071.8168 4134.7449 3072.3536 4134.7449 3072.7115 4134.5659 3073.2484 4134.208 3073.6063 4133.8501 3073.7853 4133.3132 3073.7853 4132.9553 3073.6063 4132.5974 3073.2484 4132.4185 3072.7115 4132.4185 3072.3536 4132.5974 3071.8168 4132.9553 3071.4588 4133.3132 3071.2799 4133.8501 3071.2799M4129.0899 3070.0272L4129.0899 3073.7853M4129.0899 3071.8168L4129.4478 3071.4588 4129.8057 3071.2799 4130.3426 3071.2799 4130.7005 3071.4588 4131.0584 3071.8168 4131.2374 3072.3536 4131.2374 3072.7115 4131.0584 3073.2484 4130.7005 3073.6063 4130.3426 3073.7853 4129.8057 3073.7853 4129.4478 3073.6063 4129.0899 3073.2484M4127.9088 3070.0272L4127.7299 3070.2062 4127.5509 3070.0272 4127.7299 3069.8483 4127.9088 3070.0272M4127.7299 3071.2799L4127.7299 3073.7853M4126.3698 3070.0272L4126.3698 3073.7853M4126.3698 3071.8168L4126.0119 3071.4588 4125.654 3071.2799 4125.1171 3071.2799 4124.7592 3071.4588 4124.4013 3071.8168 4124.2224 3072.3536 4124.2224 3072.7115 4124.4013 3073.2484 4124.7592 3073.6063 4125.1171 3073.7853 4125.654 3073.7853 4126.0119 3073.6063 4126.3698 3073.2484M4123.0413 3071.2799L4123.0413 3073.0694 4122.8623 3073.6063 4122.5044 3073.7853 4121.9675 3073.7853 4121.6096 3073.6063 4121.0728 3073.0694M4121.0728 3071.2799L4121.0728 3073.7853M4119.8917 3071.2799L4119.8917 3073.7853M4119.8917 3072.3536L4119.7127 3071.8168 4119.3548 3071.4588 4118.9969 3071.2799 4118.46 3071.2799" fill="none"  stroke-width="0.8"  /></g></g><g transform="matrix(-1, 0, 0, 1, 8316, 0)"><g c_partid="part_pad" c_etype="pinpart" c_origin="4154.5,3175" layerid="11" number="5V" net="" plated ="Y"  id="gge12607" locked="0" c_rotation="0" c_width="7.874" c_height="6" title="" c_shape="OVAL" pasteexpansion="0" solderexpansion="0.4"><polyline  c_etype="pad_shell" points="4153.563 3175 4155.437 3175" layerid="11" stroke-width="6" /><circle c_etype="pad_hole" cx="4154.5" cy="3175" r="1.8" layerid="11" stroke-width="0"/></g><g c_partid="part_pad" c_etype="pinpart" c_origin="4154.5,3165" layerid="11" number="GND" net="GND" plated ="Y"  id="gge12622" locked="0" c_rotation="0" c_width="7.874" c_height="6" title="GND" c_shape="RECT" pasteexpansion="0" solderexpansion="0.4"><polygon  c_etype="pad_shell" points="4150.563 3162 4158.437 3162 4158.437 3168 4150.563 3168" layerid="11" stroke-width="0" /><circle c_etype="pad_hole" cx="4154.5" cy="3165" r="1.8" layerid="11" stroke-width="0"/></g><g c_partid="part_pad" c_etype="pinpart" c_origin="4154.5,3155" layerid="11" number="D4" net="" plated ="Y"  id="gge12640" locked="0" c_rotation="0" c_width="7.874" c_height="6" title="" c_shape="OVAL" pasteexpansion="0" solderexpansion="0.4"><polyline  c_etype="pad_shell" points="4153.563 3155 4155.437 3155" layerid="11" stroke-width="6" /><circle c_etype="pad_hole" cx="4154.5" cy="3155" r="1.8" layerid="11" stroke-width="0"/></g><g c_partid="part_pad" c_etype="pinpart" c_origin="4154.5,3145" layerid="11" number="D3" net="U1_D3" plated ="Y"  id="gge12655" locked="0" c_rotation="0" c_width="7.874" c_height="6" title="U1_D3" c_shape="OVAL" pasteexpansion="0" solderexpansion="0.4"><polyline  c_etype="pad_shell" points="4153.563 3145 4155.437 3145" layerid="11" stroke-width="6" /><circle c_etype="pad_hole" cx="4154.5" cy="3145" r="1.8" layerid="11" stroke-width="0"/></g><g c_partid="part_pad" c_etype="pinpart" c_origin="4154.5,3135" layerid="11" number="D2" net="U1_D2" plated ="Y"  id="gge12670" locked="0" c_rotation="0" c_width="7.874" c_height="6" title="U1_D2" c_shape="OVAL" pasteexpansion="0" solderexpansion="0.4"><polyline  c_etype="pad_shell" points="4153.563 3135 4155.437 3135" layerid="11" stroke-width="6" /><circle c_etype="pad_hole" cx="4154.5" cy="3135" r="1.8" layerid="11" stroke-width="0"/></g><g c_partid="part_pad" c_etype="pinpart" c_origin="4154.5,3125" layerid="11" number="D1" net="U1_D1" plated ="Y"  id="gge12685" locked="0" c_rotation="0" c_width="7.874" c_height="6" title="U1_D1" c_shape="OVAL" pasteexpansion="0" solderexpansion="0.4"><polyline  c_etype="pad_shell" points="4153.563 3125 4155.437 3125" layerid="11" stroke-width="6" /><circle c_etype="pad_hole" cx="4154.5" cy="3125" r="1.8" layerid="11" stroke-width="0"/></g><g c_partid="part_pad" c_etype="pinpart" c_origin="4154.5,3115" layerid="11" number="RX" net="" plated ="Y"  id="gge12700" locked="0" c_rotation="0" c_width="7.874" c_height="6" title="" c_shape="OVAL" pasteexpansion="0" solderexpansion="0.4"><polyline  c_etype="pad_shell" points="4153.563 3115 4155.437 3115" layerid="11" stroke-width="6" /><circle c_etype="pad_hole" cx="4154.5" cy="3115" r="1.8" layerid="11" stroke-width="0"/></g><g c_partid="part_pad" c_etype="pinpart" c_origin="4154.5,3105" layerid="11" number="TX" net="" plated ="Y"  id="gge12715" locked="0" c_rotation="0" c_width="7.874" c_height="6" title="" c_shape="OVAL" pasteexpansion="0" solderexpansion="0.4"><polyline  c_etype="pad_shell" points="4153.563 3105 4155.437 3105" layerid="11" stroke-width="6" /><circle c_etype="pad_hole" cx="4154.5" cy="3105" r="1.8" layerid="11" stroke-width="0"/></g><g c_partid="part_pad" c_etype="pinpart" c_origin="4064.5,3175" layerid="11" number="3V3" net="3V3" plated ="Y"  id="gge12730" locked="0" c_rotation="180" c_width="7.874" c_height="6" title="3V3" c_shape="RECT" pasteexpansion="0" solderexpansion="0.4"><polygon  c_etype="pad_shell" points="4068.437 3178 4060.563 3178 4060.563 3172 4068.437 3172" layerid="11" stroke-width="0" /><circle c_etype="pad_hole" cx="4064.5" cy="3175" r="1.8" layerid="11" stroke-width="0"/></g><g c_partid="part_pad" c_etype="pinpart" c_origin="4064.5,3165" layerid="11" number="D8" net="" plated ="Y"  id="gge12748" locked="0" c_rotation="180" c_width="7.874" c_height="6" title="" c_shape="OVAL" pasteexpansion="0" solderexpansion="0.4"><polyline  c_etype="pad_shell" points="4065.437 3165 4063.563 3165" layerid="11" stroke-width="6" /><circle c_etype="pad_hole" cx="4064.5" cy="3165" r="1.8" layerid="11" stroke-width="0"/></g><g c_partid="part_pad" c_etype="pinpart" c_origin="4064.5,3155" layerid="11" number="D7" net="MOSI" plated ="Y"  id="gge12763" locked="0" c_rotation="180" c_width="7.874" c_height="6" title="MOSI" c_shape="OVAL" pasteexpansion="0" solderexpansion="0.4"><polyline  c_etype="pad_shell" points="4065.437 3155 4063.563 3155" layerid="11" stroke-width="6" /><circle c_etype="pad_hole" cx="4064.5" cy="3155" r="1.8" layerid="11" stroke-width="0"/></g><g c_partid="part_pad" c_etype="pinpart" c_origin="4064.5,3145" layerid="11" number="D6" net="MISO" plated ="Y"  id="gge12778" locked="0" c_rotation="180" c_width="7.874" c_height="6" title="MISO" c_shape="OVAL" pasteexpansion="0" solderexpansion="0.4"><polyline  c_etype="pad_shell" points="4065.437 3145 4063.563 3145" layerid="11" stroke-width="6" /><circle c_etype="pad_hole" cx="4064.5" cy="3145" r="1.8" layerid="11" stroke-width="0"/></g><g c_partid="part_pad" c_etype="pinpart" c_origin="4064.5,3135" layerid="11" number="D5" net="SCK" plated ="Y"  id="gge12793" locked="0" c_rotation="180" c_width="7.874" c_height="6" title="SCK" c_shape="OVAL" pasteexpansion="0" solderexpansion="0.4"><polyline  c_etype="pad_shell" points="4065.437 3135 4063.563 3135" layerid="11" stroke-width="6" /><circle c_etype="pad_hole" cx="4064.5" cy="3135" r="1.8" layerid="11" stroke-width="0"/></g><g c_partid="part_pad" c_etype="pinpart" c_origin="4064.5,3125" layerid="11" number="D0" net="CS" plated ="Y"  id="gge12808" locked="0" c_rotation="180" c_width="7.874" c_height="6" title="CS" c_shape="OVAL" pasteexpansion="0" solderexpansion="0.4"><polyline  c_etype="pad_shell" points="4065.437 3125 4063.563 3125" layerid="11" stroke-width="6" /><circle c_etype="pad_hole" cx="4064.5" cy="3125" r="1.8" layerid="11" stroke-width="0"/></g><g c_partid="part_pad" c_etype="pinpart" c_origin="4064.5,3115" layerid="11" number="A0" net="" plated ="Y"  id="gge12823" locked="0" c_rotation="180" c_width="7.874" c_height="6" title="" c_shape="OVAL" pasteexpansion="0" solderexpansion="0.4"><polyline  c_etype="pad_shell" points="4065.437 3115 4063.563 3115" layerid="11" stroke-width="6" /><circle c_etype="pad_hole" cx="4064.5" cy="3115" r="1.8" layerid="11" stroke-width="0"/></g><g c_partid="part_pad" c_etype="pinpart" c_origin="4064.5,3105" layerid="11" number="RST" net="" plated ="Y"  id="gge12838" locked="0" c_rotation="180" c_width="7.874" c_height="6" title="" c_shape="OVAL" pasteexpansion="0" solderexpansion="0.4"><polyline  c_etype="pad_shell" points="4065.437 3105 4063.563 3105" layerid="11" stroke-width="6" /><circle c_etype="pad_hole" cx="4064.5" cy="3105" r="1.8" layerid="11" stroke-width="0"/></g><g c_partid="part_pad" c_etype="pinpart" c_origin="4064.5,3105" layerid="11" number="1" net="" plated ="Y"  id="gge11762" locked="0" c_rotation="270" c_width="7.0866" c_height="7.0866" title="" c_shape="ELLIPSE" pasteexpansion="0" solderexpansion="0.2"><ellipse c_etype="pad_shell" cx="4064.5" cy="3105" rx="3.5433" ry="3.5433" layerid="11" stroke-width="0"/><circle c_etype="pad_hole" cx="4064.5" cy="3105" r="2.3622" layerid="11" stroke-width="0"/></g><g c_partid="part_pad" c_etype="pinpart" c_origin="4064.5,3115" layerid="11" number="2" net="" plated ="Y"  id="gge11777" locked="0" c_rotation="270" c_width="7.0866" c_height="7.0866" title="" c_shape="ELLIPSE" pasteexpansion="0" solderexpansion="0.2"><ellipse c_etype="pad_shell" cx="4064.5" cy="3115" rx="3.5433" ry="3.5433" layerid="11" stroke-width="0"/><circle c_etype="pad_hole" cx="4064.5" cy="3115" r="2.3622" layerid="11" stroke-width="0"/></g><g c_partid="part_pad" c_etype="pinpart" c_origin="4064.5,3125" layerid="11" number="3" net="CS" plated ="Y"  id="gge11792" locked="0" c_rotation="270" c_width="7.0866" c_height="7.0866" title="CS" c_shape="ELLIPSE" pasteexpansion="0" solderexpansion="0.2"><ellipse c_etype="pad_shell" cx="4064.5" cy="3125" rx="3.5433" ry="3.5433" layerid="11" stroke-width="0"/><circle c_etype="pad_hole" cx="4064.5" cy="3125" r="2.3622" layerid="11" stroke-width="0"/></g><g c_partid="part_pad" c_etype="pinpart" c_origin="4064.5,3135" layerid="11" number="4" net="SCK" plated ="Y"  id="gge11807" locked="0" c_rotation="270" c_width="7.0866" c_height="7.0866" title="SCK" c_shape="ELLIPSE" pasteexpansion="0" solderexpansion="0.2"><ellipse c_etype="pad_shell" cx="4064.5" cy="3135" rx="3.5433" ry="3.5433" layerid="11" stroke-width="0"/><circle c_etype="pad_hole" cx="4064.5" cy="3135" r="2.3622" layerid="11" stroke-width="0"/></g><g c_partid="part_pad" c_etype="pinpart" c_origin="4064.5,3145" layerid="11" number="5" net="MISO" plated ="Y"  id="gge11822" locked="0" c_rotation="270" c_width="7.0866" c_height="7.0866" title="MISO" c_shape="ELLIPSE" pasteexpansion="0" solderexpansion="0.2"><ellipse c_etype="pad_shell" cx="4064.5" cy="3145" rx="3.5433" ry="3.5433" layerid="11" stroke-width="0"/><circle c_etype="pad_hole" cx="4064.5" cy="3145" r="2.3622" layerid="11" stroke-width="0"/></g><g c_partid="part_pad" c_etype="pinpart" c_origin="4064.5,3155" layerid="11" number="6" net="MOSI" plated ="Y"  id="gge11837" locked="0" c_rotation="270" c_width="7.0866" c_height="7.0866" title="MOSI" c_shape="ELLIPSE" pasteexpansion="0" solderexpansion="0.2"><ellipse c_etype="pad_shell" cx="4064.5" cy="3155" rx="3.5433" ry="3.5433" layerid="11" stroke-width="0"/><circle c_etype="pad_hole" cx="4064.5" cy="3155" r="2.3622" layerid="11" stroke-width="0"/></g><g c_partid="part_pad" c_etype="pinpart" c_origin="4064.5,3165" layerid="11" number="7" net="" plated ="Y"  id="gge11852" locked="0" c_rotation="270" c_width="7.0866" c_height="7.0866" title="" c_shape="ELLIPSE" pasteexpansion="0" solderexpansion="0.2"><ellipse c_etype="pad_shell" cx="4064.5" cy="3165" rx="3.5433" ry="3.5433" layerid="11" stroke-width="0"/><circle c_etype="pad_hole" cx="4064.5" cy="3165" r="2.3622" layerid="11" stroke-width="0"/></g><g c_partid="part_pad" c_etype="pinpart" c_origin="4064.5,3175" layerid="11" number="8" net="3V3" plated ="Y"  id="gge11867" locked="0" c_rotation="270" c_width="7.0866" c_height="7.0866" title="3V3" c_shape="ELLIPSE" pasteexpansion="0" solderexpansion="0.2"><ellipse c_etype="pad_shell" cx="4064.5" cy="3175" rx="3.5433" ry="3.5433" layerid="11" stroke-width="0"/><circle c_etype="pad_hole" cx="4064.5" cy="3175" r="2.3622" layerid="11" stroke-width="0"/></g><g c_partid="part_pad" c_etype="pinpart" c_origin="4196.5,3088" layerid="11" number="2" net="GND" plated ="Y"  id="gge9106" locked="0" c_rotation="0" c_width="7.0866" c_height="7.0866" title="GND" c_shape="ELLIPSE" pasteexpansion="0" solderexpansion="0.2"><ellipse c_etype="pad_shell" cx="4196.5" cy="3088" rx="3.5433" ry="3.5433" layerid="11" stroke-width="0"/><circle c_etype="pad_hole" cx="4196.5" cy="3088" r="1.9685" layerid="11" stroke-width="0"/></g><g c_partid="part_pad" c_etype="pinpart" c_origin="4206.5,3088" layerid="11" number="3" net="3V3" plated ="Y"  id="gge9121" locked="0" c_rotation="0" c_width="7.0866" c_height="7.0866" title="3V3" c_shape="ELLIPSE" pasteexpansion="0" solderexpansion="0.2"><ellipse c_etype="pad_shell" cx="4206.5" cy="3088" rx="3.5433" ry="3.5433" layerid="11" stroke-width="0"/><circle c_etype="pad_hole" cx="4206.5" cy="3088" r="1.9685" layerid="11" stroke-width="0"/></g><g c_partid="part_pad" c_etype="pinpart" c_origin="4186.5,3088" layerid="11" number="1" net="PWR_1" plated ="Y"  id="gge9136" locked="0" c_rotation="0" c_width="7.0866" c_height="7.0866" title="PWR_1" c_shape="RECT" pasteexpansion="0" solderexpansion="0.2"><polygon  c_etype="pad_shell" points="4182.9567 3084.4567 4190.0433 3084.4567 4190.0433 3091.5433 4182.9567 3091.5433" layerid="11" stroke-width="0" /><circle c_etype="pad_hole" cx="4186.5" cy="3088" r="1.9685" layerid="11" stroke-width="0"/></g><g c_partid="part_pad" c_etype="pinpart" c_origin="4154.5,3105" layerid="11" number="1" net="" plated ="Y"  id="gge7875" locked="0" c_rotation="270" c_width="7.0866" c_height="7.0866" title="" c_shape="ELLIPSE" pasteexpansion="0" solderexpansion="0.2"><ellipse c_etype="pad_shell" cx="4154.5" cy="3105" rx="3.5433" ry="3.5433" layerid="11" stroke-width="0"/><circle c_etype="pad_hole" cx="4154.5" cy="3105" r="2.3622" layerid="11" stroke-width="0"/></g><g c_partid="part_pad" c_etype="pinpart" c_origin="4154.5,3115" layerid="11" number="2" net="" plated ="Y"  id="gge7890" locked="0" c_rotation="270" c_width="7.0866" c_height="7.0866" title="" c_shape="ELLIPSE" pasteexpansion="0" solderexpansion="0.2"><ellipse c_etype="pad_shell" cx="4154.5" cy="3115" rx="3.5433" ry="3.5433" layerid="11" stroke-width="0"/><circle c_etype="pad_hole" cx="4154.5" cy="3115" r="2.3622" layerid="11" stroke-width="0"/></g><g c_partid="part_pad" c_etype="pinpart" c_origin="4154.5,3125" layerid="11" number="3" net="U1_D1" plated ="Y"  id="gge7905" locked="0" c_rotation="270" c_width="7.0866" c_height="7.0866" title="U1_D1" c_shape="ELLIPSE" pasteexpansion="0" solderexpansion="0.2"><ellipse c_etype="pad_shell" cx="4154.5" cy="3125" rx="3.5433" ry="3.5433" layerid="11" stroke-width="0"/><circle c_etype="pad_hole" cx="4154.5" cy="3125" r="2.3622" layerid="11" stroke-width="0"/></g><g c_partid="part_pad" c_etype="pinpart" c_origin="4154.5,3135" layerid="11" number="4" net="U1_D2" plated ="Y"  id="gge7920" locked="0" c_rotation="270" c_width="7.0866" c_height="7.0866" title="U1_D2" c_shape="ELLIPSE" pasteexpansion="0" solderexpansion="0.2"><ellipse c_etype="pad_shell" cx="4154.5" cy="3135" rx="3.5433" ry="3.5433" layerid="11" stroke-width="0"/><circle c_etype="pad_hole" cx="4154.5" cy="3135" r="2.3622" layerid="11" stroke-width="0"/></g><g c_partid="part_pad" c_etype="pinpart" c_origin="4154.5,3145" layerid="11" number="5" net="U1_D3" plated ="Y"  id="gge7935" locked="0" c_rotation="270" c_width="7.0866" c_height="7.0866" title="U1_D3" c_shape="ELLIPSE" pasteexpansion="0" solderexpansion="0.2"><ellipse c_etype="pad_shell" cx="4154.5" cy="3145" rx="3.5433" ry="3.5433" layerid="11" stroke-width="0"/><circle c_etype="pad_hole" cx="4154.5" cy="3145" r="2.3622" layerid="11" stroke-width="0"/></g><g c_partid="part_pad" c_etype="pinpart" c_origin="4154.5,3155" layerid="11" number="6" net="" plated ="Y"  id="gge7950" locked="0" c_rotation="270" c_width="7.0866" c_height="7.0866" title="" c_shape="ELLIPSE" pasteexpansion="0" solderexpansion="0.2"><ellipse c_etype="pad_shell" cx="4154.5" cy="3155" rx="3.5433" ry="3.5433" layerid="11" stroke-width="0"/><circle c_etype="pad_hole" cx="4154.5" cy="3155" r="2.3622" layerid="11" stroke-width="0"/></g><g c_partid="part_pad" c_etype="pinpart" c_origin="4154.5,3165" layerid="11" number="7" net="GND" plated ="Y"  id="gge7965" locked="0" c_rotation="270" c_width="7.0866" c_height="7.0866" title="GND" c_shape="ELLIPSE" pasteexpansion="0" solderexpansion="0.2"><ellipse c_etype="pad_shell" cx="4154.5" cy="3165" rx="3.5433" ry="3.5433" layerid="11" stroke-width="0"/><circle c_etype="pad_hole" cx="4154.5" cy="3165" r="2.3622" layerid="11" stroke-width="0"/></g><g c_partid="part_pad" c_etype="pinpart" c_origin="4154.5,3175" layerid="11" number="8" net="" plated ="Y"  id="gge7980" locked="0" c_rotation="270" c_width="7.0866" c_height="7.0866" title="" c_shape="ELLIPSE" pasteexpansion="0" solderexpansion="0.2"><ellipse c_etype="pad_shell" cx="4154.5" cy="3175" rx="3.5433" ry="3.5433" layerid="11" stroke-width="0"/><circle c_etype="pad_hole" cx="4154.5" cy="3175" r="2.3622" layerid="11" stroke-width="0"/></g><g c_partid="part_pad" c_etype="pinpart" c_origin="4244,3090.89" layerid="11" number="1" net="PWR_1" plated ="Y"  id="gge201" locked="0" c_rotation="90" c_width="7.0866" c_height="7.0866" title="PWR_1" c_shape="ELLIPSE" pasteexpansion="0" solderexpansion="0.2"><ellipse c_etype="pad_shell" cx="4244" cy="3090.89" rx="3.5433" ry="3.5433" layerid="11" stroke-width="0"/><circle c_etype="pad_hole" cx="4244" cy="3090.89" r="2.1654" layerid="11" stroke-width="0"/></g><g c_partid="part_pad" c_etype="pinpart" c_origin="4244,3077.111" layerid="11" number="2" net="GND" plated ="Y"  id="gge216" locked="0" c_rotation="90" c_width="7.0866" c_height="7.0866" title="GND" c_shape="ELLIPSE" pasteexpansion="0" solderexpansion="0.2"><ellipse c_etype="pad_shell" cx="4244" cy="3077.111" rx="3.5433" ry="3.5433" layerid="11" stroke-width="0"/><circle c_etype="pad_hole" cx="4244" cy="3077.1105" r="2.1654" layerid="11" stroke-width="0"/></g><g c_partid="part_pad" c_etype="pinpart" c_origin="4244,3145.89" layerid="11" number="1" net="SW1_4" plated ="Y"  id="gge303" locked="0" c_rotation="90" c_width="7.0866" c_height="7.0866" title="SW1_4" c_shape="ELLIPSE" pasteexpansion="0" solderexpansion="0.2"><ellipse c_etype="pad_shell" cx="4244" cy="3145.89" rx="3.5433" ry="3.5433" layerid="11" stroke-width="0"/><circle c_etype="pad_hole" cx="4244" cy="3145.89" r="2.1654" layerid="11" stroke-width="0"/></g><g c_partid="part_pad" c_etype="pinpart" c_origin="4244,3132.111" layerid="11" number="2" net="SW1_3" plated ="Y"  id="gge318" locked="0" c_rotation="90" c_width="7.0866" c_height="7.0866" title="SW1_3" c_shape="ELLIPSE" pasteexpansion="0" solderexpansion="0.2"><ellipse c_etype="pad_shell" cx="4244" cy="3132.111" rx="3.5433" ry="3.5433" layerid="11" stroke-width="0"/><circle c_etype="pad_hole" cx="4244" cy="3132.1105" r="2.1654" layerid="11" stroke-width="0"/></g><g c_partid="part_pad" c_etype="pinpart" c_origin="4244,3192.39" layerid="11" number="1" net="SW2_4" plated ="Y"  id="gge405" locked="0" c_rotation="90" c_width="7.0866" c_height="7.0866" title="SW2_4" c_shape="ELLIPSE" pasteexpansion="0" solderexpansion="0.2"><ellipse c_etype="pad_shell" cx="4244" cy="3192.39" rx="3.5433" ry="3.5433" layerid="11" stroke-width="0"/><circle c_etype="pad_hole" cx="4244" cy="3192.39" r="2.1654" layerid="11" stroke-width="0"/></g><g c_partid="part_pad" c_etype="pinpart" c_origin="4244,3178.611" layerid="11" number="2" net="SW2_3" plated ="Y"  id="gge420" locked="0" c_rotation="90" c_width="7.0866" c_height="7.0866" title="SW2_3" c_shape="ELLIPSE" pasteexpansion="0" solderexpansion="0.2"><ellipse c_etype="pad_shell" cx="4244" cy="3178.611" rx="3.5433" ry="3.5433" layerid="11" stroke-width="0"/><circle c_etype="pad_hole" cx="4244" cy="3178.6105" r="2.1654" layerid="11" stroke-width="0"/></g><g c_partid="part_pad" c_etype="pinpart" c_origin="4244,3242.89" layerid="11" number="1" net="U1_D3" plated ="Y"  id="gge507" locked="0" c_rotation="90" c_width="7.0866" c_height="7.0866" title="U1_D3" c_shape="ELLIPSE" pasteexpansion="0" solderexpansion="0.2"><ellipse c_etype="pad_shell" cx="4244" cy="3242.89" rx="3.5433" ry="3.5433" layerid="11" stroke-width="0"/><circle c_etype="pad_hole" cx="4244" cy="3242.89" r="2.1654" layerid="11" stroke-width="0"/></g><g c_partid="part_pad" c_etype="pinpart" c_origin="4244,3229.111" layerid="11" number="2" net="GND" plated ="Y"  id="gge522" locked="0" c_rotation="90" c_width="7.0866" c_height="7.0866" title="GND" c_shape="ELLIPSE" pasteexpansion="0" solderexpansion="0.2"><ellipse c_etype="pad_shell" cx="4244" cy="3229.111" rx="3.5433" ry="3.5433" layerid="11" stroke-width="0"/><circle c_etype="pad_hole" cx="4244" cy="3229.1105" r="2.1654" layerid="11" stroke-width="0"/></g><g c_partid="part_pad" c_etype="pinpart" c_origin="4185.5,3134" layerid="11" number="1" net="U1_D1" plated ="Y"  id="gge603" locked="0" c_rotation="270" c_width="6" c_height="7.874" title="U1_D1" c_shape="RECT" pasteexpansion="0.0000" solderexpansion="0.2000"><polygon  c_etype="pad_shell" points="4189.437 3131 4189.437 3137 4181.563 3137 4181.563 3131" layerid="11" stroke-width="0" /><circle c_etype="pad_hole" cx="4185.5" cy="3134" r="1.9685" layerid="11" stroke-width="0"/></g><g c_partid="part_pad" c_etype="pinpart" c_origin="4185.5,3144" layerid="11" number="2" net="GND" plated ="Y"  id="gge618" locked="0" c_rotation="270" c_width="6" c_height="7.874" title="GND" c_shape="OVAL" pasteexpansion="0.0000" solderexpansion="0.2000"><polyline  c_etype="pad_shell" points="4186.437 3144 4184.563 3144" layerid="11" stroke-width="6" /><circle c_etype="pad_hole" cx="4185.5" cy="3144" r="1.9685" layerid="11" stroke-width="0"/></g><g c_partid="part_pad" c_etype="pinpart" c_origin="4215.5,3134" layerid="11" number="4" net="SW1_4" plated ="Y"  id="gge633" locked="0" c_rotation="270" c_width="6" c_height="7.874" title="SW1_4" c_shape="OVAL" pasteexpansion="0.0000" solderexpansion="0.2000"><polyline  c_etype="pad_shell" points="4216.437 3134 4214.563 3134" layerid="11" stroke-width="6" /><circle c_etype="pad_hole" cx="4215.5" cy="3134" r="1.9685" layerid="11" stroke-width="0"/></g><g c_partid="part_pad" c_etype="pinpart" c_origin="4215.5,3144" layerid="11" number="3" net="SW1_3" plated ="Y"  id="gge648" locked="0" c_rotation="270" c_width="6" c_height="7.874" title="SW1_3" c_shape="OVAL" pasteexpansion="0.0000" solderexpansion="0.2000"><polyline  c_etype="pad_shell" points="4216.437 3144 4214.563 3144" layerid="11" stroke-width="6" /><circle c_etype="pad_hole" cx="4215.5" cy="3144" r="1.9685" layerid="11" stroke-width="0"/></g><g c_partid="part_pad" c_etype="pinpart" c_origin="4185.5,3183" layerid="11" number="1" net="U1_D2" plated ="Y"  id="gge729" locked="0" c_rotation="270" c_width="6" c_height="7.874" title="U1_D2" c_shape="RECT" pasteexpansion="0.0000" solderexpansion="0.2000"><polygon  c_etype="pad_shell" points="4189.437 3180 4189.437 3186 4181.563 3186 4181.563 3180" layerid="11" stroke-width="0" /><circle c_etype="pad_hole" cx="4185.5" cy="3183" r="1.9685" layerid="11" stroke-width="0"/></g><g c_partid="part_pad" c_etype="pinpart" c_origin="4185.5,3193" layerid="11" number="2" net="GND" plated ="Y"  id="gge744" locked="0" c_rotation="270" c_width="6" c_height="7.874" title="GND" c_shape="OVAL" pasteexpansion="0.0000" solderexpansion="0.2000"><polyline  c_etype="pad_shell" points="4186.437 3193 4184.563 3193" layerid="11" stroke-width="6" /><circle c_etype="pad_hole" cx="4185.5" cy="3193" r="1.9685" layerid="11" stroke-width="0"/></g><g c_partid="part_pad" c_etype="pinpart" c_origin="4215.5,3183" layerid="11" number="4" net="SW2_4" plated ="Y"  id="gge759" locked="0" c_rotation="270" c_width="6" c_height="7.874" title="SW2_4" c_shape="OVAL" pasteexpansion="0.0000" solderexpansion="0.2000"><polyline  c_etype="pad_shell" points="4216.437 3183 4214.563 3183" layerid="11" stroke-width="6" /><circle c_etype="pad_hole" cx="4215.5" cy="3183" r="1.9685" layerid="11" stroke-width="0"/></g><g c_partid="part_pad" c_etype="pinpart" c_origin="4215.5,3193" layerid="11" number="3" net="SW2_3" plated ="Y"  id="gge774" locked="0" c_rotation="270" c_width="6" c_height="7.874" title="SW2_3" c_shape="OVAL" pasteexpansion="0.0000" solderexpansion="0.2000"><polyline  c_etype="pad_shell" points="4216.437 3193 4214.563 3193" layerid="11" stroke-width="6" /><circle c_etype="pad_hole" cx="4215.5" cy="3193" r="1.9685" layerid="11" stroke-width="0"/></g><g c_partid="part_via" c_etype="pinpart" c_shapetype="group" net="CS" c_origin="4112,3212.333" layerid="11" id="gge10902" locked="0" solderexpansion=""><circle cx="4112" cy="3212.333" r="1.2205" stroke-width="0" c_etype="pad_shell"/><circle cx="4112" cy="3212.333" r="0.6102"  stroke-width="0" c_etype="pad_hole"/></g><g c_partid="part_via" c_etype="pinpart" c_shapetype="group" net="SCK" c_origin="4099,3212.333" layerid="11" id="gge10941" locked="0" solderexpansion=""><circle cx="4099" cy="3212.333" r="1.2205" stroke-width="0" c_etype="pad_shell"/><circle cx="4099" cy="3212.333" r="0.6102"  stroke-width="0" c_etype="pad_hole"/></g><g c_partid="part_via" c_etype="pinpart" c_shapetype="group" net="MISO" c_origin="4090.5,3212.333" layerid="11" id="gge10953" locked="0" solderexpansion=""><circle cx="4090.5" cy="3212.333" r="1.2205" stroke-width="0" c_etype="pad_shell"/><circle cx="4090.5" cy="3212.333" r="0.6102"  stroke-width="0" c_etype="pad_hole"/></g><g c_partid="part_via" c_etype="pinpart" c_shapetype="group" net="MOSI" c_origin="4084.5,3175" layerid="11" id="gge11405" locked="0" solderexpansion=""><circle cx="4084.5" cy="3175" r="1.2205" stroke-width="0" c_etype="pad_shell"/><circle cx="4084.5" cy="3175" r="0.6102"  stroke-width="0" c_etype="pad_hole"/></g><g c_partid="part_via" c_etype="pinpart" c_shapetype="group" net="MOSI" c_origin="4108,3175" layerid="11" id="gge11456" locked="0" solderexpansion=""><circle cx="4108" cy="3175" r="1.2205" stroke-width="0" c_etype="pad_shell"/><circle cx="4108" cy="3175" r="0.6102"  stroke-width="0" c_etype="pad_hole"/></g><g c_partid="part_via" c_etype="pinpart" c_shapetype="group" net="MOSI" c_origin="4108,3212.333" layerid="11" id="gge11483" locked="0" solderexpansion=""><circle cx="4108" cy="3212.333" r="1.2205" stroke-width="0" c_etype="pad_shell"/><circle cx="4108" cy="3212.333" r="0.6102"  stroke-width="0" c_etype="pad_hole"/></g><g c_partid="part_via" c_etype="pinpart" c_shapetype="group" net="GND" c_origin="4168.5,3222.5" layerid="11" id="gge11525" locked="0" solderexpansion=""><circle cx="4168.5" cy="3222.5" r="1.2205" stroke-width="0" c_etype="pad_shell"/><circle cx="4168.5" cy="3222.5" r="0.6102"  stroke-width="0" c_etype="pad_hole"/></g><g c_partid="part_via" c_etype="pinpart" c_shapetype="group" net="3V3" c_origin="4070,3196" layerid="11" id="gge11555" locked="0" solderexpansion=""><circle cx="4070" cy="3196" r="1.2205" stroke-width="0" c_etype="pad_shell"/><circle cx="4070" cy="3196" r="0.6102"  stroke-width="0" c_etype="pad_hole"/></g><g c_partid="part_via" c_etype="pinpart" c_shapetype="group" net="3V3" c_origin="4103.5,3228" layerid="11" id="gge11582" locked="0" solderexpansion=""><circle cx="4103.5" cy="3228" r="1.2205" stroke-width="0" c_etype="pad_shell"/><circle cx="4103.5" cy="3228" r="0.6102"  stroke-width="0" c_etype="pad_hole"/></g><g c_partid="part_hole" c_etype="pinpart" c_shapetype="group" c_origin="4058,3055.5" layerid="11" id="gge2150" locked="0" ><circle cx="4058" cy="3055.5" r="5.9055"  stroke-width="1" fill-opacity="0" /></g><g c_partid="part_hole" c_etype="pinpart" c_shapetype="group" c_origin="4258,3263.5" layerid="11" id="gge2165" locked="0" ><circle cx="4258" cy="3263.5" r="5.9055"  stroke-width="1" fill-opacity="0" /></g><g c_partid="part_hole" c_etype="pinpart" c_shapetype="group" c_origin="4058,3263.5" layerid="11" id="gge2180" locked="0" ><circle cx="4058" cy="3263.5" r="5.9055"  stroke-width="1" fill-opacity="0" /></g><g c_partid="part_hole" c_etype="pinpart" c_shapetype="group" c_origin="4258,3055.5" layerid="11" id="gge2195" locked="0" ><circle cx="4258" cy="3055.5" r="5.9055"  stroke-width="1" fill-opacity="0" /></g><g c_partid="part_hole" c_etype="pinpart" c_shapetype="group" c_origin="4088.012,3263.067" layerid="11" id="gge10117" locked="0" ><circle cx="4088.012" cy="3263.067" r="1.9685"  stroke-width="1" fill-opacity="0" /></g><g c_partid="part_hole" c_etype="pinpart" c_shapetype="group" c_origin="4119.508,3263.057" layerid="11" id="gge10129" locked="0" ><circle cx="4119.508" cy="3263.057" r="1.9685"  stroke-width="1" fill-opacity="0" /></g></g><g transform="matrix(-1, 0, 0, 1, 8316, 0)"><polyline points="4045.5 3264 4045.4999 3055.8121" stroke-width="1"  stroke-linecap="round" fill="none" layerid="10" net="" id="gge3788" locked="0" /><polyline points="4270.4995 3055.8121 4270.5 3264" stroke-width="1"  stroke-linecap="round" fill="none" layerid="10" net="" id="gge3776" locked="0" /><polyline points="4258.5 3275.5 4057 3275.5" stroke-width="1"  stroke-linecap="round" fill="none" layerid="10" net="" id="gge3782" locked="0" /><polyline points="4058 3044 4258.5 3044" stroke-width="1"  stroke-linecap="round" fill="none" layerid="10" net="" id="gge3770" locked="0" /><path d="M 4258.6885 3044.0011 A 11.811 11.811 0 0 1 4270.4995 3055.8121" locked="0"  fill="none" stroke-width="1" c_helper_type="arc2" net="" layerid="10" id="gge3773" /><path d="M 4270.4995 3263.6896 A 11.811 11.811 0 0 1 4258.6885 3275.5006" locked="0"  fill="none" stroke-width="1" c_helper_type="arc2" net="" layerid="10" id="gge3779" /><path d="M 4045.4999 3055.8121 A 11.811 11.811 0 0 1 4057.3109 3044.0011" locked="0"  fill="none" stroke-width="1" c_helper_type="arc2" net="" layerid="10" id="gge3791" /><path d="M 4057.4055 3275.4055 A 11.811 11.811 0 0 1 4045.5945 3263.5945" locked="0"  fill="none" stroke-width="1" c_helper_type="arc2" net="" layerid="10" id="gge3785" /></g></svg>